<?xml version="1.0" encoding="utf-8"?>
<!-- Generator: Adobe Illustrator 24.0.1, SVG Export Plug-In . SVG Version: 6.00 Build 0)  -->
<svg version="1.1" id="Layer_1" xmlns="http://www.w3.org/2000/svg" xmlns:xlink="http://www.w3.org/1999/xlink" x="0px" y="0px"
	 viewBox="0 0 450 150" style="enable-background:new 0 0 450 150;" xml:space="preserve">
<style type="text/css">
	.st0{fill:#E21D2B;}
	.st1{font-family:'BrandonText-Medium';}
	.st2{font-size:74.9906px;}
</style>
<path class="st0" d="M19.66,74.76c-0.24-19.22,16.7-35.33,36.06-34.56C72.21,40.85,89.61,56,88.73,76.66
	c-0.74,17.38-16.19,34.04-36.29,33.13C34.38,108.98,19.26,93.16,19.66,74.76z M71.39,75.38c0.08-9.74-7.47-17.65-16.94-17.74
	c-9.68-0.1-17.43,7.5-17.5,17.16c-0.08,9.61,7.4,17.43,16.78,17.54C63.46,92.46,71.3,84.93,71.39,75.38z"/>
<text transform="matrix(1 0 0 1 104.9347 92.3438)" class="st1 st2">orderspot</text>
</svg>
