<?xml version="1.0" encoding="utf-8"?>
<!-- Generator: Adobe Illustrator 24.0.1, SVG Export Plug-In . SVG Version: 6.00 Build 0)  -->
<svg version="1.1" id="Layer_1" xmlns="http://www.w3.org/2000/svg" xmlns:xlink="http://www.w3.org/1999/xlink" x="0px" y="0px"
	 viewBox="0 0 210 20" style="enable-background:new 0 0 210 20;" xml:space="preserve">
<style type="text/css">
	.st0{display:none;fill-rule:evenodd;clip-rule:evenodd;fill:#FFFFFF;}
	.st1{fill:#E21D2B;}
	.st2{font-family:'BrandonText-Medium';}
	.st3{font-size:19.2622px;}
</style>
<path class="st0" d="M146.2,4v6.3h1.9c1.6,0,3.2-0.7,3.2-3.2c0-2.5-1.5-3.1-3.2-3.1L146.2,4L146.2,4z M152.2,13.8l3.3,5.9h-4.1
	l-2.6-5l-0.5-0.8h-2v5.8h-3.8V0.4h6.1c5.4,0,6.5,4.5,6.5,7c0,2.7-1.4,4.7-3.3,5.6C151.9,13.3,152,13.6,152.2,13.8z M47,4v6.3h1.9
	c1.6,0,3.2-0.7,3.2-3.2C52,4.6,50.5,4,48.9,4L47,4L47,4z M53,13.8l3.3,5.9h-4.1l-2.6-5L49,13.8h-2v5.8h-3.8V0.4h6.1
	c5.4,0,6.5,4.5,6.5,7c0,2.7-1.4,4.7-3.3,5.6C52.7,13.3,52.9,13.6,53,13.8L53,13.8z M197.1,5.7c0-3.5,2.5-5.7,6.3-5.7
	c3.7,0,6.3,2.5,6.3,6.5H206c0-2.1-1-3-2.6-3c-1.6,0-2.5,0.8-2.5,2.2c0,3.8,9.1,1.6,9.1,8.5c0,3.7-2.6,5.9-6.5,5.9
	c-3.9,0-6.6-2.5-6.6-6.7h3.8c0,2.2,1.1,3.2,2.8,3.2c1.6,0,2.8-0.7,2.8-2.3C206.2,10.5,197.1,12.5,197.1,5.7z M187.5,4v4.4h5.2v3.3
	h-5.2v4.4h7.1v3.6h-10.8V0.4h10.8V4H187.5z M170.8,16.1h2.1c1.8,0,3.2-0.7,3.2-4.5V7.8c0-2.1-0.5-3.9-3.2-3.9h-2.1
	C170.8,4,170.8,16.1,170.8,16.1z M167,0.4h6.3c3.8,0,6.5,2.4,6.5,7.1v5.1c0,4.7-2.7,7.1-6.5,7.1H167V0.4z M158.8,19.7V0.4h3.8v19.3
	H158.8z M128.9,4v15.7h-3.8V4h-4V0.4h11.8V4H128.9z M111.7,4v4.4h5.2v3.3h-5.2v4.4h7.1v3.6h-10.8V0.4h10.8V4H111.7z M100.4,19.7
	l-3.8-8h-1.4v8h-3.8V0.4h3.8v7.9h1.4l3.8-7.9h4.2l-4.8,9.6l4.8,9.7H100.4z M81.5,3.6c-1.3,0-2.7,0.7-2.7,2.9v6.8c0,2.3,1.4,3,2.7,3
	c1.8,0,2.7-0.9,2.7-3.7v-0.2H88c0,4.9-2.1,7.5-6.5,7.5c-3.8,0-6.5-2.7-6.5-6.7V6.7C75,2.7,77.7,0,81.5,0C85.8,0,88,2.8,88,7.3h-3.8
	V7C84.2,4.2,82.8,3.6,81.5,3.6z M68.1,13.4V6.6c0-2.2-1.3-3-2.7-3c-1.3,0-2.7,0.7-2.7,2.9v6.8c0,2.2,1.3,2.9,2.7,2.9
	C66.7,16.3,68.1,15.6,68.1,13.4z M58.9,13.3V6.7c0-3.9,2.7-6.7,6.5-6.7c3.8,0,6.5,2.8,6.5,6.7v6.6c0,3.9-2.7,6.7-6.5,6.7
	C61.6,19.9,58.9,17.2,58.9,13.3L58.9,13.3z M24.6,1.1c4.9,0,8.9,4,8.9,8.9c0,4.9-4,8.9-8.9,8.9H11.1c-0.5,0-1-0.4-1-1c0,0,0,0,0,0
	c0-0.5,0.4-1,1-1h13.5c3.8,0,6.9-3.1,6.9-6.9s-3.1-6.9-6.9-6.9H3.2c-0.5,0-1-0.4-1-1s0.4-1,1-1L24.6,1.1L24.6,1.1z M21.7,10
	c0,1.6,1.3,3,3,3c1.6,0,3-1.3,3-3c0-1.6-1.3-3-3-3C23,7,21.7,8.4,21.7,10z M29.6,10c0,2.7-2.2,4.9-4.9,4.9c-2.7,0-4.9-2.2-4.9-4.9
	s2.2-4.9,4.9-4.9S29.6,7.3,29.6,10L29.6,10z M17.9,7H7.7c-0.5,0-1-0.4-1-1s0.4-1,1-1h10.1c0.5,0,1,0.4,1,1S18.4,7,17.9,7z
	 M18.9,13.9c0,0.5-0.4,1-1,1H6.6c-0.5,0-1-0.4-1-1s0.4-1,1-1h11.3C18.4,13,18.9,13.4,18.9,13.9z M17.7,10c0,0.5-0.4,1-1,1H1
	c-0.5,0-1-0.4-1-1s0.4-1,1-1h15.8C17.3,9,17.7,9.5,17.7,10L17.7,10z"/>
<path class="st1" d="M54.2,9.9c-0.1-4.9,4.3-9.1,9.3-8.9c4.2,0.2,8.7,4.1,8.5,9.4c-0.2,4.5-4.2,8.7-9.3,8.5
	C57.9,18.7,54.1,14.7,54.2,9.9z M67.4,10.1c0-2.5-1.9-4.5-4.4-4.6c-2.5,0-4.5,1.9-4.5,4.4c0,2.5,1.9,4.5,4.3,4.5
	C65.4,14.5,67.4,12.5,67.4,10.1z"/>
<text transform="matrix(1 0 0 1 76.0632 14.4512)" class="st2 st3">orderspot</text>
</svg>
